<mxfile host="Electron" modified="2024-09-19T10:24:16.233Z" agent="Mozilla/5.0 (Windows NT 10.0; Win64; x64) AppleWebKit/537.36 (KHTML, like Gecko) draw.io/23.1.5 Chrome/120.0.6099.109 Electron/28.1.0 Safari/537.36" etag="2JGwV3s3mK7UzqQ4TInH" version="23.1.5" type="device">
  <diagram name="Page-1" id="9uxqBfX1HuCGRCwlhnvd">
    <mxGraphModel dx="1208" dy="702" grid="1" gridSize="10" guides="1" tooltips="1" connect="1" arrows="1" fold="1" page="1" pageScale="1" pageWidth="850" pageHeight="1100" math="0" shadow="0">
      <root>
        <mxCell id="0" />
        <mxCell id="1" parent="0" />
        <mxCell id="FbUYTmaqHTPSEFHgF1BD-1" value="User" style="swimlane;fontStyle=0;childLayout=stackLayout;horizontal=1;startSize=26;horizontalStack=0;resizeParent=1;resizeParentMax=0;resizeLast=0;collapsible=1;marginBottom=0;align=center;fontSize=14;" vertex="1" parent="1">
          <mxGeometry x="80" y="160" width="200" height="332" as="geometry">
            <mxRectangle x="80" y="160" width="70" height="30" as="alternateBounds" />
          </mxGeometry>
        </mxCell>
        <mxCell id="FbUYTmaqHTPSEFHgF1BD-2" value="- id: Long (PK)" style="text;strokeColor=none;fillColor=none;spacingLeft=4;spacingRight=4;overflow=hidden;rotatable=0;points=[[0,0.5],[1,0.5]];portConstraint=eastwest;fontSize=12;whiteSpace=wrap;html=1;" vertex="1" parent="FbUYTmaqHTPSEFHgF1BD-1">
          <mxGeometry y="26" width="200" height="30" as="geometry" />
        </mxCell>
        <mxCell id="FbUYTmaqHTPSEFHgF1BD-3" value="- email: String (unique)" style="text;strokeColor=none;fillColor=none;spacingLeft=4;spacingRight=4;overflow=hidden;rotatable=0;points=[[0,0.5],[1,0.5]];portConstraint=eastwest;fontSize=12;whiteSpace=wrap;html=1;" vertex="1" parent="FbUYTmaqHTPSEFHgF1BD-1">
          <mxGeometry y="56" width="200" height="30" as="geometry" />
        </mxCell>
        <mxCell id="FbUYTmaqHTPSEFHgF1BD-5" value="- phoneNumber: String (unique)" style="text;strokeColor=none;fillColor=none;spacingLeft=4;spacingRight=4;overflow=hidden;rotatable=0;points=[[0,0.5],[1,0.5]];portConstraint=eastwest;fontSize=12;whiteSpace=wrap;html=1;" vertex="1" parent="FbUYTmaqHTPSEFHgF1BD-1">
          <mxGeometry y="86" width="200" height="30" as="geometry" />
        </mxCell>
        <mxCell id="FbUYTmaqHTPSEFHgF1BD-6" value="-&amp;nbsp; password: String&amp;nbsp;" style="text;whiteSpace=wrap;html=1;" vertex="1" parent="FbUYTmaqHTPSEFHgF1BD-1">
          <mxGeometry y="116" width="200" height="36" as="geometry" />
        </mxCell>
        <mxCell id="FbUYTmaqHTPSEFHgF1BD-7" value="- firstName: String" style="text;strokeColor=none;fillColor=none;spacingLeft=4;spacingRight=4;overflow=hidden;rotatable=0;points=[[0,0.5],[1,0.5]];portConstraint=eastwest;fontSize=12;whiteSpace=wrap;html=1;" vertex="1" parent="FbUYTmaqHTPSEFHgF1BD-1">
          <mxGeometry y="152" width="200" height="30" as="geometry" />
        </mxCell>
        <mxCell id="FbUYTmaqHTPSEFHgF1BD-11" value="- middleName:String" style="text;strokeColor=none;fillColor=none;spacingLeft=4;spacingRight=4;overflow=hidden;rotatable=0;points=[[0,0.5],[1,0.5]];portConstraint=eastwest;fontSize=12;whiteSpace=wrap;html=1;" vertex="1" parent="FbUYTmaqHTPSEFHgF1BD-1">
          <mxGeometry y="182" width="200" height="30" as="geometry" />
        </mxCell>
        <mxCell id="FbUYTmaqHTPSEFHgF1BD-8" value="- lastName: String" style="text;strokeColor=none;fillColor=none;spacingLeft=4;spacingRight=4;overflow=hidden;rotatable=0;points=[[0,0.5],[1,0.5]];portConstraint=eastwest;fontSize=12;whiteSpace=wrap;html=1;" vertex="1" parent="FbUYTmaqHTPSEFHgF1BD-1">
          <mxGeometry y="212" width="200" height="30" as="geometry" />
        </mxCell>
        <mxCell id="FbUYTmaqHTPSEFHgF1BD-9" value="- address: String" style="text;strokeColor=none;fillColor=none;spacingLeft=4;spacingRight=4;overflow=hidden;rotatable=0;points=[[0,0.5],[1,0.5]];portConstraint=eastwest;fontSize=12;whiteSpace=wrap;html=1;" vertex="1" parent="FbUYTmaqHTPSEFHgF1BD-1">
          <mxGeometry y="242" width="200" height="30" as="geometry" />
        </mxCell>
        <mxCell id="FbUYTmaqHTPSEFHgF1BD-12" value="- createdAt: Date Time" style="text;strokeColor=none;fillColor=none;spacingLeft=4;spacingRight=4;overflow=hidden;rotatable=0;points=[[0,0.5],[1,0.5]];portConstraint=eastwest;fontSize=12;whiteSpace=wrap;html=1;" vertex="1" parent="FbUYTmaqHTPSEFHgF1BD-1">
          <mxGeometry y="272" width="200" height="30" as="geometry" />
        </mxCell>
        <mxCell id="FbUYTmaqHTPSEFHgF1BD-13" value="- updatedAt: Date Time" style="text;strokeColor=none;fillColor=none;spacingLeft=4;spacingRight=4;overflow=hidden;rotatable=0;points=[[0,0.5],[1,0.5]];portConstraint=eastwest;fontSize=12;whiteSpace=wrap;html=1;" vertex="1" parent="FbUYTmaqHTPSEFHgF1BD-1">
          <mxGeometry y="302" width="200" height="30" as="geometry" />
        </mxCell>
        <mxCell id="FbUYTmaqHTPSEFHgF1BD-10" value="&lt;div style=&quot;text-align: left;&quot;&gt;&lt;span style=&quot;font-family: &amp;quot;Times New Roman&amp;quot;; background-color: initial;&quot;&gt;&lt;font style=&quot;font-size: 18px;&quot;&gt;Khi đăng kí, điền vào field Email or Phone:&lt;/font&gt;&lt;/span&gt;&lt;/div&gt;&lt;font style=&quot;&quot; face=&quot;Times New Roman&quot;&gt;&lt;div style=&quot;text-align: left;&quot;&gt;&lt;span style=&quot;background-color: initial;&quot;&gt;&lt;font style=&quot;font-size: 18px;&quot;&gt;+ Nếu dùng email thì field email lưu, field phoneNumber rỗng và ngược lại.&lt;/font&gt;&lt;/span&gt;&lt;/div&gt;&lt;div style=&quot;text-align: left;&quot;&gt;&lt;font size=&quot;3&quot;&gt;+ Password lưu dạng Hashing.&lt;/font&gt;&lt;/div&gt;&lt;div style=&quot;text-align: left;&quot;&gt;&lt;font size=&quot;3&quot;&gt;&lt;br&gt;&lt;/font&gt;&lt;/div&gt;&lt;div style=&quot;text-align: left;&quot;&gt;&lt;font size=&quot;3&quot;&gt;Khi điền name thì sẽ lấy cụm từ cuối cho firstName, cụm đầu cho lastName, còn lại để middleName&lt;/font&gt;&lt;/div&gt;&lt;div style=&quot;text-align: left;&quot;&gt;&lt;font size=&quot;3&quot;&gt;Vd: name: Tran Van Minh An&lt;/font&gt;&lt;/div&gt;&lt;div style=&quot;text-align: left;&quot;&gt;&lt;font size=&quot;3&quot;&gt;Thì việc lưu trữ là&amp;nbsp;&lt;/font&gt;&lt;/div&gt;&lt;div style=&quot;text-align: left;&quot;&gt;&lt;font size=&quot;3&quot;&gt;&lt;br&gt;&lt;/font&gt;&lt;/div&gt;&lt;div style=&quot;text-align: left;&quot;&gt;&lt;font size=&quot;3&quot;&gt;First name: An&lt;/font&gt;&lt;/div&gt;&lt;div style=&quot;text-align: left;&quot;&gt;&lt;font size=&quot;3&quot;&gt;Middle name: Van Minh&lt;/font&gt;&lt;/div&gt;&lt;div style=&quot;text-align: left;&quot;&gt;&lt;font size=&quot;3&quot;&gt;Last name: Tran&lt;/font&gt;&lt;/div&gt;&lt;div style=&quot;text-align: left;&quot;&gt;&lt;font size=&quot;3&quot;&gt;&lt;br&gt;&lt;/font&gt;&lt;/div&gt;&lt;div style=&quot;text-align: left;&quot;&gt;&lt;br&gt;&lt;/div&gt;&lt;/font&gt;" style="text;html=1;align=center;verticalAlign=middle;whiteSpace=wrap;rounded=0;" vertex="1" parent="1">
          <mxGeometry x="360" y="192" width="330" height="240" as="geometry" />
        </mxCell>
        <mxCell id="FbUYTmaqHTPSEFHgF1BD-14" value="&lt;font style=&quot;font-size: 18px;&quot; face=&quot;Times New Roman&quot;&gt;CreateAt, UpdateAt chỉ được thêm vào từ csdl, ko được phép truyền từ UI&amp;nbsp;&lt;/font&gt;" style="text;html=1;align=left;verticalAlign=middle;whiteSpace=wrap;rounded=0;" vertex="1" parent="1">
          <mxGeometry x="360" y="492" width="230" height="30" as="geometry" />
        </mxCell>
      </root>
    </mxGraphModel>
  </diagram>
</mxfile>
